<?xml version="1.0" encoding="UTF-8" standalone="no"?>
<!DOCTYPE svg PUBLIC "-//W3C//DTD SVG 20010904//EN"
              "http://www.w3.org/TR/2001/REC-SVG-20010904/DTD/svg10.dtd">

<svg xmlns="http://www.w3.org/2000/svg"
     width="5.12222in" height="1.27778in"
     viewBox="0 0 461 115">
  <path id="Selection"
        fill="none" stroke="black" stroke-width="1"
        d="M 0.00,0.00
           C 0.00,0.00 0.00,115.00 0.00,115.00
             0.00,115.00 228.00,115.00 228.00,115.00
             228.00,115.00 214.00,111.65 214.00,111.65
             201.43,107.73 195.80,104.22 182.00,101.92
             174.56,100.68 162.28,99.13 158.16,91.91
             155.57,87.37 156.93,70.27 157.00,64.00
             157.00,64.00 157.98,50.00 157.98,50.00
             157.88,44.79 157.04,44.46 156.82,41.00
             156.82,41.00 156.82,34.00 156.82,34.00
             157.25,26.84 157.21,17.33 164.04,13.01
             168.06,10.46 172.65,11.32 177.00,9.74
             183.31,7.45 188.34,-0.09 196.00,1.94
             201.65,3.44 207.08,10.74 210.97,15.00
             214.30,18.65 217.25,21.36 214.00,26.00
             216.75,31.22 219.55,31.11 223.58,35.18
             223.58,35.18 234.27,47.67 234.27,47.67
             239.00,51.78 242.76,52.73 245.00,59.00
             252.78,60.66 253.50,64.85 259.01,69.82
             268.22,78.11 275.20,77.17 283.07,88.00
             285.92,91.91 288.62,96.38 285.45,100.96
             282.59,105.09 276.70,107.16 272.00,108.34
             272.00,108.34 235.00,114.00 235.00,114.00
             235.00,114.00 257.00,115.00 257.00,115.00
             257.00,115.00 303.00,115.00 303.00,115.00
             303.00,115.00 461.00,115.00 461.00,115.00
             461.00,115.00 461.00,0.00 461.00,0.00
             461.00,0.00 0.00,0.00 0.00,0.00 Z
           M 212.00,24.00
           C 212.00,24.00 215.00,24.00 215.00,24.00
             213.04,16.53 200.29,2.19 192.00,3.23
             186.00,3.97 181.40,9.41 177.00,11.15
             172.79,12.81 166.01,11.15 161.99,16.34
             158.76,20.51 159.30,25.18 158.83,30.00
             157.23,46.52 159.44,40.51 159.65,49.00
             159.65,49.00 158.83,65.00 158.83,65.00
             158.83,65.00 158.83,75.00 158.83,75.00
             158.56,80.56 156.61,86.83 159.85,91.96
             163.89,98.32 174.17,99.26 181.00,100.27
             197.83,102.75 212.83,112.60 230.00,112.99
             236.95,113.14 266.84,108.31 274.00,106.36
             278.63,105.09 285.47,102.71 285.75,97.00
             285.87,94.43 284.58,92.06 283.21,90.00
             276.18,79.43 271.04,79.94 262.00,73.56
             255.13,68.72 255.87,67.54 251.39,63.41
             251.39,63.41 245.37,59.31 245.37,59.31
             245.37,59.31 238.96,52.63 238.96,52.63
             238.96,52.63 231.58,47.32 231.58,47.32
             230.05,45.73 230.18,43.99 225.41,38.84
             220.12,33.13 215.03,31.45 212.00,24.00 Z
           M 45.00,44.00
           C 41.41,48.18 32.30,62.11 28.00,63.34
             20.25,65.57 15.25,48.48 14.00,43.00
             11.80,47.31 10.20,52.23 9.31,57.00
             9.31,57.00 8.17,65.00 8.17,65.00
             7.97,66.92 8.10,70.06 6.98,71.64
             5.23,74.12 1.96,73.23 1.24,68.96
             0.55,64.84 5.74,47.10 7.15,42.00
             7.89,39.31 8.96,34.70 12.13,33.96
             18.49,32.48 20.33,44.36 22.82,48.99
             23.95,51.09 25.84,54.41 28.72,53.09
             30.34,52.34 32.98,48.52 34.13,47.00
             34.13,47.00 43.37,35.00 43.37,35.00
             44.83,33.12 47.72,28.86 50.58,29.72
             53.89,30.71 52.39,36.61 52.17,39.00
             52.17,39.00 50.57,66.00 50.57,66.00
             50.61,69.52 52.88,75.50 49.69,76.55
             46.29,77.67 44.52,72.41 44.19,70.00
             44.19,70.00 45.00,44.00 45.00,44.00 Z
           M 152.00,32.00
           C 149.53,39.91 138.94,39.13 132.00,39.83
             128.45,40.19 123.75,39.95 122.17,44.05
             119.92,49.89 128.59,50.15 132.00,49.92
             137.45,49.32 138.33,48.39 144.00,49.92
             139.43,58.90 131.88,54.07 125.00,56.74
             121.89,57.95 118.57,61.32 119.22,64.94
             120.41,71.58 135.39,68.21 140.00,67.34
             141.96,66.97 147.42,65.50 147.39,69.12
             147.37,72.34 142.38,73.17 140.00,73.56
             140.00,73.56 120.00,75.96 120.00,75.96
             117.71,76.05 114.46,76.17 112.74,74.40
             109.16,70.74 112.83,60.63 113.56,56.00
             114.26,51.59 114.56,39.12 116.74,36.15
             118.93,33.14 121.62,33.07 125.00,32.96
             125.00,32.96 136.00,32.96 136.00,32.96
             142.98,32.42 144.49,30.24 152.00,32.00 Z
           M 48.00,31.00
           C 48.00,31.00 33.87,50.00 33.87,50.00
             32.53,51.73 29.84,55.56 27.42,55.58
             25.49,55.59 23.91,53.38 22.95,51.96
             18.73,45.69 17.97,37.63 14.74,36.17
             10.50,34.24 9.06,41.37 8.37,44.00
             6.12,52.56 1.53,63.30 4.00,72.00
             4.00,72.00 6.00,72.00 6.00,72.00
             6.00,72.00 7.46,58.00 7.46,58.00
             7.46,58.00 12.00,41.00 12.00,41.00
             12.00,41.00 15.00,41.00 15.00,41.00
             15.00,41.00 17.69,50.00 17.69,50.00
             17.69,50.00 20.32,56.00 20.32,56.00
             21.35,57.88 23.07,60.83 25.18,61.60
             28.20,62.70 30.56,60.04 32.25,57.96
             37.72,51.25 39.47,46.44 46.92,41.00
             46.92,41.00 46.92,52.00 46.92,52.00
             46.12,59.45 42.13,71.29 50.00,76.00
             50.00,76.00 49.00,62.00 49.00,62.00
             49.00,62.00 51.00,31.00 51.00,31.00
             51.00,31.00 48.00,31.00 48.00,31.00 Z
           M 83.00,32.39
           C 99.27,30.20 109.32,39.69 103.29,56.00
             99.34,66.68 90.18,75.00 79.00,77.33
             67.04,79.83 59.69,70.31 61.30,59.00
             63.07,46.55 70.74,36.04 83.00,32.39 Z
           M 281.00,53.00
           C 292.86,50.48 296.86,34.98 309.00,34.00
             307.76,40.51 303.63,45.21 298.91,49.72
             297.11,51.43 292.40,54.71 293.34,57.61
             294.22,60.32 303.28,62.81 306.00,63.65
             309.36,64.69 310.52,64.83 314.00,65.00
             309.35,77.84 295.72,63.65 287.00,63.47
             280.21,63.34 281.84,70.14 281.69,71.94
             281.52,73.93 280.57,75.96 278.17,75.26
             274.51,74.19 275.00,67.95 275.00,65.00
             275.00,65.00 275.00,44.00 275.00,44.00
             275.03,41.90 275.19,30.78 279.63,33.17
             282.12,34.51 281.96,38.63 281.71,41.00
             281.71,41.00 281.00,49.00 281.00,49.00
             281.00,49.00 281.00,53.00 281.00,53.00 Z
           M 366.00,45.00
           C 366.00,45.00 367.00,37.00 367.00,37.00
             356.26,40.75 348.63,46.97 344.70,58.00
             342.68,63.65 342.45,71.00 350.00,72.48
             353.04,73.07 358.27,70.99 361.00,69.63
             369.50,65.37 374.22,59.32 384.00,57.00
             380.93,63.74 378.10,66.15 372.00,70.25
             366.11,74.21 359.21,77.81 352.00,77.99
             349.70,78.04 346.13,78.09 344.02,77.26
             336.77,74.41 336.09,64.49 337.76,58.00
             340.80,46.19 354.53,30.09 368.00,32.15
             375.29,33.26 376.85,42.68 366.00,45.00 Z
           M 389.00,32.00
           C 392.28,38.23 391.00,47.03 391.00,54.00
             404.37,47.90 406.26,36.90 418.00,33.00
             418.80,43.33 406.48,50.41 401.00,58.00
             401.00,58.00 410.00,61.80 410.00,61.80
             410.00,61.80 416.00,63.85 416.00,63.85
             417.64,64.32 420.94,64.93 421.83,66.52
             423.25,69.04 419.94,70.31 417.98,70.31
             411.78,70.31 399.58,62.34 395.06,63.70
             391.13,64.88 391.74,67.95 391.63,70.98
             391.42,76.67 387.61,76.48 385.57,72.85
             382.55,67.48 384.93,58.97 385.00,53.00
             385.08,45.69 383.29,37.43 389.00,32.00 Z
           M 460.00,41.00
           C 453.79,40.34 453.19,38.79 449.00,38.21
             442.07,37.25 431.83,41.92 436.37,47.87
             440.80,53.67 463.90,54.65 456.43,67.91
             453.07,73.87 443.58,77.66 437.00,77.96
             435.01,78.05 425.55,78.04 428.17,73.58
             429.16,71.89 432.32,72.07 434.00,71.97
             437.94,71.71 448.48,69.56 449.23,64.83
             449.78,61.30 444.50,59.58 442.00,58.66
             435.64,56.32 426.28,52.48 427.62,44.00
             428.02,41.51 429.32,39.27 431.22,37.64
             432.95,36.15 435.85,34.86 438.00,34.09
             440.70,33.12 444.13,32.27 447.00,32.09
             454.52,31.63 458.70,33.27 460.00,41.00 Z
           M 327.08,33.91
           C 330.78,34.69 330.90,36.43 330.32,40.00
             330.32,40.00 328.46,48.00 328.46,48.00
             328.46,48.00 326.28,64.00 326.28,64.00
             325.99,66.41 326.41,72.41 323.59,73.28
             319.14,74.65 318.93,67.57 319.09,65.00
             319.09,65.00 322.61,43.00 322.61,43.00
             323.36,39.02 323.32,35.94 327.08,33.91 Z
           M 85.00,33.53
           C 73.10,36.66 65.66,44.83 63.46,57.00
             61.44,68.20 66.20,77.90 79.00,75.67
             90.94,73.60 102.43,61.20 102.96,49.00
             103.47,37.32 96.12,32.24 85.00,33.53 Z
           M 147.00,68.00
           C 141.67,68.25 127.21,71.51 123.00,70.53
             115.73,68.83 115.97,60.65 121.21,56.73
             128.12,51.57 137.57,57.37 142.00,50.00
             142.00,50.00 132.00,51.41 132.00,51.41
             119.87,53.24 117.18,44.11 123.22,39.85
             129.31,35.55 144.93,40.52 150.00,33.00
             150.00,33.00 129.00,35.00 129.00,35.00
             125.61,35.02 120.19,34.27 117.98,37.31
             115.95,40.12 115.71,52.48 114.92,57.00
             114.27,60.71 111.52,70.30 114.02,73.40
             115.75,75.54 119.65,74.43 122.00,74.15
             125.79,73.71 142.38,71.91 144.71,70.57
             146.24,69.69 146.16,69.29 147.00,68.00 Z
           M 278.00,33.00
           C 276.73,40.08 277.08,40.12 277.00,47.00
             276.89,55.79 272.97,68.09 280.00,75.00
             280.00,75.00 280.00,71.00 280.00,71.00
             280.39,50.22 299.30,71.32 312.00,68.00
             308.25,65.12 301.64,64.12 297.00,62.17
             295.10,61.37 291.96,60.06 291.34,57.87
             290.51,54.99 294.22,51.82 296.00,50.00
             300.83,45.07 305.28,41.94 307.00,35.00
             299.09,38.74 295.91,46.27 289.00,51.65
             286.28,53.52 282.50,55.80 280.19,51.65
             277.45,47.14 282.75,39.44 278.00,33.00 Z
           M 380.00,60.00
           C 380.00,60.00 365.00,69.18 365.00,69.18
             362.37,70.75 358.96,72.61 356.00,73.39
             346.71,75.85 340.74,70.55 342.32,61.00
             343.64,53.09 349.79,45.31 356.00,40.53
             361.07,36.62 369.02,32.74 368.00,43.00
             372.29,40.70 374.46,36.00 368.89,33.75
             365.81,32.51 360.86,34.03 358.00,35.40
             348.06,40.18 339.25,51.78 339.02,63.00
             338.93,67.12 339.07,71.40 342.39,74.35
             345.84,77.42 350.78,77.23 355.00,76.33
             363.33,74.56 376.05,67.67 380.00,60.00 Z
           M 85.00,35.34
           C 96.93,34.52 102.14,41.67 99.07,53.00
             96.70,61.76 89.34,71.05 80.00,72.67
             69.73,74.45 64.72,67.68 66.32,58.00
             67.99,47.91 74.72,37.83 85.00,35.34 Z
           M 388.00,34.00
           C 386.62,39.68 387.06,42.35 387.00,48.00
             386.88,57.65 384.00,65.38 388.00,75.00
             391.67,70.01 388.68,66.97 391.74,63.43
             394.33,60.43 397.86,61.65 401.00,62.82
             408.20,65.47 413.13,68.61 421.00,69.00
             417.11,63.01 405.08,64.59 401.74,58.78
             400.00,55.74 403.10,53.03 405.02,51.00
             409.72,46.03 414.75,41.65 417.00,35.00
             404.26,41.84 405.94,49.64 390.00,56.00
             390.00,49.79 391.32,39.13 388.00,34.00 Z
           M 428.00,75.00
           C 429.83,75.85 430.92,76.49 433.00,76.74
             439.77,77.57 454.10,72.47 455.67,65.00
             457.55,56.03 443.46,54.76 438.04,51.47
             432.50,48.11 431.57,43.78 437.05,39.65
             438.19,38.78 439.68,38.02 441.00,37.48
             443.17,36.59 445.64,36.03 448.00,36.14
             451.29,36.30 454.75,38.08 458.00,39.00
             457.06,37.18 456.80,36.15 454.86,35.02
             450.16,32.29 431.21,34.19 429.36,44.00
             427.41,54.30 443.04,56.47 447.94,59.41
             454.23,63.19 450.92,67.62 446.00,70.47
             444.41,71.38 442.74,72.03 441.00,72.56
             433.83,74.72 432.87,72.00 428.00,75.00 Z
           M 326.00,35.00
           C 323.60,44.06 319.53,64.31 322.00,73.00
             324.89,69.09 324.66,63.70 325.28,59.00
             325.28,59.00 329.00,35.00 329.00,35.00
             329.00,35.00 326.00,35.00 326.00,35.00 Z
           M 83.00,37.65
           C 75.23,40.91 69.72,48.70 68.32,57.00
             66.65,66.98 71.37,73.56 82.00,70.35
             90.08,67.92 96.32,59.10 97.68,51.00
             98.88,43.82 97.23,37.82 89.00,37.11
             86.65,36.90 85.25,37.18 83.00,37.65 Z" />
</svg>
