<?xml version="1.0" encoding="UTF-8" standalone="no"?>
<!DOCTYPE svg PUBLIC "-//W3C//DTD SVG 20010904//EN"
              "http://www.w3.org/TR/2001/REC-SVG-20010904/DTD/svg10.dtd">

<svg xmlns="http://www.w3.org/2000/svg"
     width="129.975mm" height="32.3878mm"
     viewBox="0 0 614 153">
  <path id="Selection"
        fill="none" stroke="black" stroke-width="1"
        d="M 326.00,79.00
           C 324.54,72.15 323.08,73.01 318.26,69.22
             313.51,65.49 315.36,64.41 308.00,63.00
             307.36,55.12 305.05,56.26 300.54,51.41
             298.30,49.00 298.21,46.79 293.98,43.85
             288.61,40.11 283.76,41.17 284.00,33.00
             284.00,33.00 287.00,34.00 287.00,34.00
             286.90,23.49 285.10,26.23 280.94,20.67
             272.87,14.09 267.43,0.13 255.06,3.09
             246.58,4.37 240.72,12.69 236.00,14.40
             231.74,15.95 219.79,12.82 213.85,22.04
             210.38,27.43 210.35,39.55 209.91,46.00
             209.91,46.00 209.18,54.00 209.18,54.00
             209.52,57.71 211.52,59.35 211.77,63.00
             211.77,63.00 210.00,88.00 210.00,88.00
             210.00,88.00 210.59,103.00 210.59,103.00
             210.59,103.00 209.34,109.00 209.34,109.00
             208.92,112.05 209.72,120.99 211.57,123.38
             220.12,134.41 241.51,133.43 254.00,136.73
             254.00,136.73 288.00,148.98 288.00,148.98
             291.74,149.81 306.63,152.05 310.00,151.90
             310.00,151.90 339.00,147.13 339.00,147.13
             350.97,145.45 365.25,144.28 375.98,138.20
             385.13,133.03 382.62,124.80 376.99,118.00
             374.34,114.81 371.21,110.47 367.91,108.10
             361.74,103.67 353.89,102.23 343.04,92.56
             336.08,86.35 336.50,80.12 326.00,79.00 Z
           M 17.00,56.00
           C 17.00,56.00 19.00,56.00 19.00,56.00
             21.99,63.79 23.04,69.38 27.43,77.00
             28.92,79.59 30.98,83.27 34.04,84.16
             38.28,85.39 41.19,80.92 43.28,78.00
             48.93,70.09 54.27,62.06 61.00,55.00
             63.23,64.15 59.87,77.30 59.18,87.00
             58.91,90.86 60.06,100.13 64.11,101.83
             67.08,103.08 68.36,100.60 67.91,97.98
             67.37,94.86 66.10,95.38 66.00,88.00
             66.00,88.00 68.20,54.00 68.20,54.00
             68.09,50.83 70.75,41.72 68.20,40.08
             64.87,37.63 60.82,44.81 59.28,47.00
             59.28,47.00 43.09,68.00 43.09,68.00
             41.55,70.21 39.26,74.66 36.03,74.24
             33.33,73.89 31.40,70.15 30.26,68.00
             28.90,65.42 27.68,62.75 26.70,60.00
             25.12,55.58 24.05,47.21 18.96,45.66
             13.55,44.01 12.23,50.26 11.35,54.00
             11.35,54.00 2.89,86.00 2.89,86.00
             2.15,89.28 1.28,95.08 5.21,96.83
             10.58,99.22 9.99,89.64 10.00,87.00
             10.02,76.75 13.33,65.55 17.00,56.00 Z
           M 195.00,42.52
           C 181.26,45.88 179.73,44.97 166.00,45.00
             163.20,45.01 159.59,44.71 157.31,46.60
             154.15,49.22 154.17,55.23 153.97,59.00
             153.56,66.31 152.76,73.87 151.12,81.00
             150.16,85.19 147.22,96.05 150.60,99.40
             152.75,101.54 156.37,100.68 159.00,100.20
             159.00,100.20 178.00,97.58 178.00,97.58
             182.18,97.02 192.65,96.76 195.63,94.15
             198.10,91.98 196.65,89.09 192.00,89.52
             192.00,89.52 183.00,91.54 183.00,91.54
             183.00,91.54 168.00,93.00 168.00,93.00
             165.14,93.03 160.58,93.37 158.33,91.40
             154.56,88.12 157.79,78.21 161.22,75.60
             165.43,72.40 180.34,73.83 185.98,72.06
             192.00,70.17 191.87,64.93 185.98,65.80
             180.36,66.63 169.34,69.51 164.11,67.26
             158.44,64.83 159.58,56.54 163.28,53.60
             166.02,51.41 170.63,52.14 174.00,51.91
             178.92,51.58 191.73,50.38 196.00,49.06
             202.50,47.04 203.77,41.43 195.00,42.52 Z
           M 113.00,43.48
           C 95.65,47.23 85.56,62.19 82.62,79.00
             80.39,91.68 89.31,104.32 103.00,102.24
             118.59,99.88 131.63,87.73 136.91,73.00
             143.64,54.24 132.37,41.61 113.00,43.48 Z
           M 370.00,43.00
           C 367.11,49.24 368.01,55.25 368.00,62.00
             368.00,62.00 367.04,74.00 367.04,74.00
             367.04,74.00 367.04,87.00 367.04,87.00
             367.01,90.35 366.86,100.37 371.96,100.37
             374.97,100.37 374.60,96.97 374.24,95.00
             373.38,90.39 371.96,84.73 378.04,82.64
             383.06,80.91 399.13,89.50 405.00,91.56
             410.39,93.46 414.97,94.37 417.00,88.00
             417.00,88.00 408.00,86.39 408.00,86.39
             408.00,86.39 394.00,81.32 394.00,81.32
             391.79,80.47 387.04,78.82 387.04,75.91
             387.04,73.24 393.03,68.85 395.00,66.96
             400.18,61.98 409.53,52.92 411.00,46.20
             408.95,45.79 408.08,45.47 406.04,46.20
             406.04,46.20 386.00,66.82 386.00,66.82
             383.93,68.64 379.07,72.70 376.15,72.13
             372.73,71.45 372.94,66.61 373.09,64.00
             373.51,60.14 375.26,47.65 373.09,44.72
             372.10,43.54 371.21,43.49 370.00,43.00 Z
           M 510.00,77.00
           C 502.57,78.51 491.51,89.12 482.00,93.74
             477.00,96.17 471.67,98.33 466.00,97.90
             457.14,97.24 455.26,90.76 456.18,83.00
             457.50,71.94 465.44,61.10 474.00,54.39
             476.53,52.40 488.53,45.07 490.43,50.73
             490.43,50.73 489.00,59.00 489.00,59.00
             500.10,57.19 500.57,43.48 489.00,43.06
             471.68,42.43 453.37,63.90 450.28,80.00
             449.99,82.61 449.88,86.36 450.28,89.00
             451.39,104.95 466.01,105.34 478.00,101.14
             484.54,98.84 488.32,96.52 494.00,92.66
             500.14,88.49 506.76,83.86 510.00,77.00 Z
           M 556.14,45.00
           C 542.59,49.57 535.55,71.25 520.00,73.00
             520.00,73.00 520.00,52.00 520.00,52.00
             520.00,50.06 520.40,45.51 518.48,44.40
             514.95,42.37 514.50,50.24 514.14,52.00
             514.14,52.00 514.14,68.00 514.14,68.00
             514.14,68.00 513.06,81.00 513.06,81.00
             513.06,81.00 513.06,86.00 513.06,86.00
             513.06,86.00 513.06,92.00 513.06,92.00
             513.46,94.62 514.44,100.37 517.96,100.37
             519.12,100.37 519.92,99.70 520.36,98.68
             521.75,95.50 516.41,82.77 526.00,82.32
             530.61,82.10 545.83,89.75 552.00,91.47
             554.54,92.44 560.02,93.96 561.95,91.47
             564.62,87.58 557.83,87.02 556.00,86.68
             552.42,86.01 541.47,82.08 538.00,80.53
             536.15,79.70 533.20,78.32 533.20,75.91
             533.20,72.93 538.83,69.21 540.99,67.39
             546.17,63.00 546.98,60.79 551.17,56.00
             552.88,54.04 555.61,51.54 556.14,49.00
             556.75,47.27 556.32,46.56 556.14,45.00 Z
           M 611.00,54.00
           C 611.99,46.19 606.77,44.29 600.00,43.68
             591.96,42.96 577.76,46.67 572.65,53.18
             570.65,55.73 569.83,58.81 570.35,62.00
             572.03,72.23 584.65,75.29 593.00,78.03
             596.03,79.02 601.72,81.07 601.66,85.01
             601.57,91.79 586.64,96.71 581.00,96.96
             577.06,97.13 568.31,94.91 569.74,99.83
             571.01,104.18 578.66,103.43 582.00,103.00
             590.68,101.87 605.83,96.27 608.49,87.00
             612.41,73.31 589.46,72.43 582.02,67.30
             571.43,60.02 579.28,53.03 588.00,50.10
             591.19,49.03 594.65,48.84 598.00,49.04
             604.66,49.44 604.28,52.09 611.00,54.00 Z
           M 434.68,45.05
           C 431.74,48.55 431.67,53.62 430.80,58.00
             430.80,58.00 426.09,85.00 426.09,85.00
             425.89,87.96 425.27,96.14 428.41,97.60
             433.59,100.01 432.92,90.38 433.09,88.00
             433.09,88.00 436.46,62.00 436.46,62.00
             436.46,62.00 439.09,52.00 439.09,52.00
             439.86,48.30 439.63,43.80 434.68,45.05 Z
           M 111.00,48.30
           C 113.95,47.99 117.03,47.76 120.00,48.30
             131.24,49.92 133.14,58.29 131.38,68.00
             129.23,79.91 119.20,92.66 107.00,95.47
             96.95,97.79 89.52,93.84 89.04,83.00
             88.48,70.33 98.71,52.35 111.00,48.30 Z" />
</svg>
